<svg width="358" height="254" viewBox="0 0 358 254" fill="none" xmlns="http://www.w3.org/2000/svg">
<path d="M3.05764 200.5L20.0576 212L38.5576 184L75.0576 140L89.5576 130L136.558 127.5C136.558 127.5 160.312 140.659 175.058 145C182.332 147.141 191.058 148.5 191.058 148.5L203.058 153.5L232.066 170.344C233.299 171.059 234.058 172.377 234.058 173.803V176.516C234.058 178.44 234.752 180.301 236.012 181.755L247.058 194.5L296.058 252.5L298.531 253.399C299.924 253.906 301.366 252.773 301.202 251.299L301.058 250L302.558 249C302.558 249 306.98 253.175 309.058 253.5C313.328 254.168 321.058 250 321.058 250C321.058 250 325.972 248.185 329.058 244C330.251 242.382 330.558 239.5 331.558 239.5C332.363 239.5 333.558 240 333.558 240C333.558 240 335.172 237.955 339.058 235C343.378 231.713 348.058 230 350.058 226.5C353.513 220.453 353.558 206 355.058 188.5C355.293 185.759 355.983 182.344 356.642 179.517C357.479 175.928 357.265 172.15 355.813 168.763L353.558 163.5L354.558 146.5L352.558 126L352.058 102L340.112 77.2547C338.792 74.5204 336.484 72.3881 333.654 71.2876L329.058 69.5C329.058 69.5 318.058 59 317.058 55C313.683 41.5022 309.366 20.2302 307.287 9.75412C306.559 6.08941 303.407 3.4145 299.673 3.29404L290.558 3L258.558 2.5V7.03252C258.558 8.12431 257.682 9.01435 256.59 9.03225L229.888 9.47C228.852 9.48698 227.974 8.71002 227.866 7.67964L227.544 4.61569C227.27 2.01282 225.035 0.0616769 222.419 0.141434L145.058 2.5C145.058 2.5 121.789 12.4808 109.058 22C100.537 28.3711 98.2949 33.9373 89.0576 40C84.3124 43.1145 82.2906 41.6998 77.0576 45.5C69.234 51.1815 65.0576 56 58.0576 63C55.132 65.9257 53.5576 74 53.5576 74L50.0576 81C50.0576 81 54.4671 81.2241 55.0576 83.5C56.2449 88.0752 47.9821 89.2673 44.5576 93C40.757 97.1428 37.5576 105 37.5576 105C37.5576 105 29.4148 118.276 25.5576 126.5C15.4634 148.022 1.55765 181.5 1.55765 181.5L2.05764 185C2.05764 185 -0.403867 190.449 0.0576381 194.5C0.394287 197.455 3.05764 200.5 3.05764 200.5Z" fill="#D9D9D9"/>
</svg>
